# xmcd
#
# Track frame offsets: 
#        150
#        29457
#        60214
#        103184
#        136046
#        163252
#        201067
#        231484
#        269208
#        302206
#        331068
#
# Disc length: 4799 seconds
#
# Revision: 0
# Processed by: cddbd v1.5.2PL0 Copyright (c) Steve Scherf et al.
# Submitted via: ExactAudioCopy v1.3
#
DISCID=9d12bd0b
DTITLE=Various Artist - Akella Presents - vol.165 - Long Time Blues  
DTITLE=CD1
DYEAR=2018
DGENRE=Blues
TTITLE0=Southbound Snake Charmers - Don't Speak Too Soon
TTITLE1=Richie Arndt - Back To Bad
TTITLE2=Dave Meniketti - Take It Like a Man
TTITLE3=George Foster - The Fields Of Aberdare
TTITLE4=Kat Danser - Train I Ride
TTITLE5=Johnny Heartsman and Blues Co - Move On Down The Line
TTITLE6=Blues Company - Silent Night
TTITLE7=Kirk Fletcher - Gotta Right
TTITLE8=Get The Cat - I Lost A Dollar In Your Kitchen
TTITLE9=Tota Blues - Let The Good Times Roll
TTITLE10=Danny Bowes - Still Got The Blues For You
EXTD=
EXTT0=
EXTT1=
EXTT2=
EXTT3=
EXTT4=
EXTT5=
EXTT6=
EXTT7=
EXTT8=
EXTT9=
EXTT10=
PLAYORDER=
